<svg style="position:absolute; width:0; height:0" xmlns="http://www.w3.org/2000/svg"><symbol viewBox="0 0 32 32" id="icon-calendar"><g id="calendar-Browser" stroke="none" stroke-width="1" fill="none" fill-rule="evenodd"> <g id="calendar-calendar" fill="#FFFFFF"> <path d="M4.15384615,28.8571429 L9,28.8571429 L9,24.0357143 L4.15384615,24.0357143 L4.15384615,28.8571429 Z M10.0769231,28.8571429 L15.4615385,28.8571429 L15.4615385,24.0357143 L10.0769231,24.0357143 L10.0769231,28.8571429 Z M4.15384615,22.9642857 L9,22.9642857 L9,17.6071429 L4.15384615,17.6071429 L4.15384615,22.9642857 Z M10.0769231,22.9642857 L15.4615385,22.9642857 L15.4615385,17.6071429 L10.0769231,17.6071429 L10.0769231,22.9642857 Z M4.15384615,16.5357143 L9,16.5357143 L9,11.7142857 L4.15384615,11.7142857 L4.15384615,16.5357143 Z M16.5384615,28.8571429 L21.9230769,28.8571429 L21.9230769,24.0357143 L16.5384615,24.0357143 L16.5384615,28.8571429 Z M10.0769231,16.5357143 L15.4615385,16.5357143 L15.4615385,11.7142857 L10.0769231,11.7142857 L10.0769231,16.5357143 Z M23,28.8571429 L27.8461538,28.8571429 L27.8461538,24.0357143 L23,24.0357143 L23,28.8571429 Z M16.5384615,22.9642857 L21.9230769,22.9642857 L21.9230769,17.6071429 L16.5384615,17.6071429 L16.5384615,22.9642857 Z M10.6153846,8.5 L10.6153846,3.67857143 C10.6153846,3.53348142 10.5620999,3.40792464 10.4555288,3.30189732 C10.3489578,3.19587001 10.2227571,3.14285714 10.0769231,3.14285714 L9,3.14285714 C8.85416594,3.14285714 8.72796528,3.19587001 8.62139423,3.30189732 C8.51482319,3.40792464 8.46153846,3.53348142 8.46153846,3.67857143 L8.46153846,8.5 C8.46153846,8.64509001 8.51482319,8.77064679 8.62139423,8.87667411 C8.72796528,8.98270142 8.85416594,9.03571429 9,9.03571429 L10.0769231,9.03571429 C10.2227571,9.03571429 10.3489578,8.98270142 10.4555288,8.87667411 C10.5620999,8.77064679 10.6153846,8.64509001 10.6153846,8.5 L10.6153846,8.5 Z M23,22.9642857 L27.8461538,22.9642857 L27.8461538,17.6071429 L23,17.6071429 L23,22.9642857 Z M16.5384615,16.5357143 L21.9230769,16.5357143 L21.9230769,11.7142857 L16.5384615,11.7142857 L16.5384615,16.5357143 Z M23,16.5357143 L27.8461538,16.5357143 L27.8461538,11.7142857 L23,11.7142857 L23,16.5357143 Z M23.5384615,8.5 L23.5384615,3.67857143 C23.5384615,3.53348142 23.4851768,3.40792464 23.3786058,3.30189732 C23.2720347,3.19587001 23.1458341,3.14285714 23,3.14285714 L21.9230769,3.14285714 C21.7772429,3.14285714 21.6510422,3.19587001 21.5444712,3.30189732 C21.4379001,3.40792464 21.3846154,3.53348142 21.3846154,3.67857143 L21.3846154,8.5 C21.3846154,8.64509001 21.4379001,8.77064679 21.5444712,8.87667411 C21.6510422,8.98270142 21.7772429,9.03571429 21.9230769,9.03571429 L23,9.03571429 C23.1458341,9.03571429 23.2720347,8.98270142 23.3786058,8.87667411 C23.4851768,8.77064679 23.5384615,8.64509001 23.5384615,8.5 L23.5384615,8.5 Z M30,7.42857143 L30,28.8571429 C30,29.4375029 29.7868611,29.93973 29.3605769,30.3638393 C28.9342927,30.7879485 28.4294901,31 27.8461538,31 L4.15384615,31 C3.5705099,31 3.06570726,30.7879485 2.63942308,30.3638393 C2.21313889,29.93973 2,29.4375029 2,28.8571429 L2,7.42857143 C2,6.84821138 2.21313889,6.34598426 2.63942308,5.921875 C3.06570726,5.49776574 3.5705099,5.28571429 4.15384615,5.28571429 L6.30769231,5.28571429 L6.30769231,3.67857143 C6.30769231,2.9419606 6.57131147,2.31138655 7.09855769,1.78683036 C7.62580392,1.26227416 8.25961168,1 9,1 L10.0769231,1 C10.8173114,1 11.4511192,1.26227416 11.9783654,1.78683036 C12.5056116,2.31138655 12.7692308,2.9419606 12.7692308,3.67857143 L12.7692308,5.28571429 L19.2307692,5.28571429 L19.2307692,3.67857143 C19.2307692,2.9419606 19.4943884,2.31138655 20.0216346,1.78683036 C20.5488808,1.26227416 21.1826886,1 21.9230769,1 L23,1 C23.7403883,1 24.3741961,1.26227416 24.9014423,1.78683036 C25.4286885,2.31138655 25.6923077,2.9419606 25.6923077,3.67857143 L25.6923077,5.28571429 L27.8461538,5.28571429 C28.4294901,5.28571429 28.9342927,5.49776574 29.3605769,5.921875 C29.7868611,6.34598426 30,6.84821138 30,7.42857143 L30,7.42857143 Z"/> </g> </g> </symbol><symbol viewBox="0 0 32 32" id="icon-chained"><g id="chained-Browser" stroke="none" stroke-width="1" fill="none" fill-rule="evenodd"> <g id="chained-chained" fill="#FFFFFF"> <g id="chained-rocketheld" transform="translate(1.000000, 0.500000)"> <path d="M5.44766667,24.5542941 C5.18766667,24.8168695 5.18733333,25.242504 5.44766667,25.5050794 C5.70766667,25.7676549 6.13033333,25.7676549 6.39033333,25.5050794 L9.21866667,22.6527234 C9.479,22.390148 9.479,21.9641774 9.21866667,21.7019381 C8.95833333,21.4393627 8.53633333,21.4393627 8.276,21.7019381 L5.44766667,24.5542941 Z M13.226,16.7093065 L10.3976667,19.5616625 C10.1373333,19.824238 10.137,20.2502086 10.3973333,20.5127841 C10.6576667,20.7750233 11.08,20.7750233 11.3403333,20.5124478 L14.1686667,17.6600919 C14.429,17.3975164 14.429,16.9715458 14.1686667,16.7093065 C13.9083333,16.4467311 13.4863333,16.4467311 13.226,16.7093065 Z M4.269,26.6938973 C4.00866667,26.4313219 3.58666667,26.4316581 3.32633333,26.6938973 L0.498333333,29.5465895 C0.238,29.8091649 0.238,30.2347994 0.498333333,30.4973748 C0.758333333,30.7599502 1.18066667,30.7599502 1.441,30.4973748 L4.269,27.6446826 C4.52933333,27.3824434 4.52933333,26.9564727 4.269,26.6938973 Z M3.03633333,25.0841518 L3.85133333,24.2621327 C4.21266667,23.8976874 4.71933333,23.7551368 5.23166667,23.8210329 L6.16733333,22.8773078 C5.16933333,22.4762163 4.06766667,22.6180944 3.348,23.343623 L2.12566667,24.5764836 C1.40633333,25.3023483 1.26566667,26.413503 1.66333333,27.4200982 L2.599,26.4763732 C2.53433333,25.9596274 2.675,25.4485971 3.03633333,25.0841518 Z M6.68,27.1151611 L5.86533333,27.936844 C5.504,28.3012893 4.99733333,28.4435037 4.48433333,28.3779439 L3.549,29.3213327 C4.547,29.7224242 5.649,29.5808823 6.36833333,28.8550175 L7.59033333,27.6224931 C8.31,26.8969646 8.45033333,25.7854737 8.05266667,24.7788785 L7.11733333,25.7222673 C7.18266667,26.2393493 7.04133333,26.7507158 6.68,27.1151611 Z M7.98633333,20.0918565 L8.80133333,19.2698373 C9.16266667,18.9057282 9.66933333,18.7635139 10.1816667,18.8287375 L11.1173333,17.8853486 C10.119,17.4845933 9.017,17.6261352 8.298,18.3513276 L7.07566667,19.5845244 C6.35633333,20.310053 6.21566667,21.4212077 6.61333333,22.4278029 L7.549,21.484414 C7.48366667,20.9673321 7.625,20.4563018 7.98633333,20.0918565 Z M11.63,22.1228657 L10.815,22.9448848 C10.4536667,23.3093301 9.947,23.4515445 9.43433333,23.3859847 L8.499,24.3290373 C9.497,24.7301289 10.5986667,24.5889231 11.3183333,23.8630584 L12.5403333,22.6301978 C13.2596667,21.9046692 13.4003333,20.7935145 13.0026667,19.7869193 L12.0673333,20.7299719 C12.132,21.2473901 11.991,21.7584204 11.63,22.1228657 Z" id="chained-chain" /> <path d="M26.3680478,5.53392906 C26.3680478,5.13630001 26.2291603,4.79832039 25.9513812,4.51998005 C25.673602,4.24163971 25.3363038,4.10247163 24.9394764,4.10247163 C24.542649,4.10247163 24.2053508,4.24163971 23.9275716,4.51998005 C23.6497925,4.79832039 23.510905,5.13630001 23.510905,5.53392906 C23.510905,5.93155812 23.6497925,6.26953774 23.9275716,6.54787808 C24.2053508,6.82621841 24.542649,6.9653865 24.9394764,6.9653865 C25.3363038,6.9653865 25.673602,6.82621841 25.9513812,6.54787808 C26.2291603,6.26953774 26.3680478,5.93155812 26.3680478,5.53392906 L26.3680478,5.53392906 Z M29.7013812,1.23955677 C29.7013812,3.71479762 29.3268809,5.85450686 28.5778693,7.65874869 C27.8288576,9.46299051 26.5714297,11.2547796 24.8055478,13.0341696 C24.0019724,13.8294277 23.0347201,14.7041985 21.9037621,15.6585082 L21.6061431,21.3097828 C21.5863017,21.4688345 21.5069374,21.598062 21.3680478,21.6974692 L15.6537621,25.0375366 C15.5843173,25.0772995 15.504953,25.0971806 15.4156669,25.0971806 C15.2966187,25.0971806 15.1825325,25.052448 15.073405,24.9629815 L14.121024,24.0086765 C13.9920551,23.8695064 13.952373,23.7104571 14.0019764,23.5315241 L15.2668574,19.4160839 L11.0853097,15.2260888 L6.97816688,16.493525 C6.94840482,16.5034658 6.90376241,16.508436 6.8442383,16.508436 C6.70534872,16.508436 6.59126256,16.4637034 6.5019764,16.3742369 L5.54959545,15.419932 C5.38094381,15.2310582 5.35614247,15.0372169 5.47519069,14.8384024 L8.80852402,9.11257264 C8.90773086,8.97340247 9.03669783,8.89387786 9.19542878,8.8739964 L14.8353097,8.57577611 C15.7876954,7.44253331 16.6607026,6.47332703 17.4543574,5.6681282 C19.319446,3.80921238 21.0952219,2.52687792 22.7817383,1.82108635 C24.4682547,1.11529478 26.6061301,0.762404293 29.1954288,0.762404293 C29.3343184,0.762404293 29.4533648,0.809622034 29.5525716,0.904058934 C29.6517785,0.998495834 29.7013812,1.11032733 29.7013812,1.23955677 L29.7013812,1.23955677 Z" id="chained-rocket" /> </g> </g> </g> </symbol><symbol viewBox="0 0 32 32" id="icon-chrome"><g id="chrome-Browser" stroke="none" stroke-width="1" fill="none" fill-rule="evenodd">  <g id="chrome-chrome"> <g transform="translate(1.000000, 1.000000)"> <path d="M28.9447714,9.73211786 L18.60315,9.73211786 C20.4761464,10.9011429 21.6561643,12.5784429 21.6561643,14.95005 C21.6561643,16.5752357 21.0698143,18.0628714 20.0985964,19.2151393 L13.9947,29.9659359 C14.3246893,29.9876235 14.6573893,30 14.9928964,30 C23.2731536,30 29.985675,23.2832507 29.985675,14.997675 C29.985675,12.9921857 29.6582893,11.4807214 28.9447714,9.73211786 L28.9447714,9.73211786 Z" id="chrome-Fill-1" fill="#FBDE00" /> <path d="M28.4477679,8.60015357 C26.0027679,3.63687857 20.8968107,0.0648642857 14.9928857,0.0648642857 C10.202205,0.0648642857 5.93641929,2.31317143 3.19172786,5.81284286 L8.42913643,14.8370571 C8.52600321,11.2655036 11.3958107,8.60382857 14.9884929,8.60382857 C15.2428179,8.60382857 28.4477679,8.60015357 28.4477679,8.60015357 L28.4477679,8.60015357 Z" id="chrome-Fill-2" fill="#F05745" /> <path d="M9.62519893,15.0404036 C9.62519893,18.0015321 12.0242143,20.4018375 14.9833821,20.4018375 C17.94255,20.4018375 20.3414679,18.0015321 20.3414679,15.0404036 C20.3414679,12.0794464 17.94255,9.67901786 14.9833821,9.67901786 C12.0242143,9.67901786 9.62519893,12.0794464 9.62519893,15.0404036 L9.62519893,15.0404036 Z" id="chrome-Fill-3" fill="#67BCFF" /> <path d="M8.85793179,17.3764714 C8.81281929,17.4026893 2.57604429,6.65676429 2.57604429,6.65676429 C0.950115107,9.0555 0,11.9502536 0,15.0670607 C0,22.6607721 5.63871857,28.9356088 12.9549643,29.930785 L18.0840643,20.8967604 C17.1726214,21.3702846 16.1382643,21.6394254 15.0404464,21.6394254 C12.2166214,21.6394254 9.8073825,19.8684782 8.85793179,17.3764714 Z" id="chrome-Fill-4" fill="#49BB44" /> </g> </g> </g> </symbol><symbol viewBox="0 0 32 32" id="icon-firefox"><g id="firefox-Browser" stroke="none" stroke-width="1" fill="none" fill-rule="evenodd">  <g id="firefox-firefox_icon"> <g id="firefox-firefox" transform="translate(0.500000, 0.500000)"> <circle id="firefox-oval" fill="#56AFEF"  cx="15.5" cy="15.5" r="14.5"/> <path d="M15.0356221,0.5 L16.7498655,0.568640353 C21.3733799,1.01429936 24.991776,3.45146024 27.8873871,6.9865134 C27.7851308,6.57659878 27.6501078,6.0361604 27.515235,5.49580769 C27.5874266,5.47306321 27.6597684,5.45023307 27.7320673,5.42748859 C29.3863208,7.46797033 29.5225767,10.0549407 30.0016385,12.6140693 C30.0938697,12.2106547 30.1691815,11.8803136 30.2447398,11.5500582 C30.2869204,11.5487518 30.3290045,11.5473383 30.371228,11.5459569 C30.4154029,11.687114 30.4969013,11.8279285 30.4982845,11.9693961 C30.5406152,16.4335891 29.8113433,20.7003345 27.3092963,24.4639065 C25.0920273,27.7993308 21.9236577,29.568757 18.1122001,30.2354129 C14.8807848,30.8004313 11.7483555,30.5029867 8.82446285,28.9302487 C4.62332374,26.6702902 2.22302374,22.9753435 1.1372953,18.2941282 C1.12129262,18.2253058 1.09133239,18.1598244 1.04327321,18.0222224 C0.978086498,18.1239729 0.935549071,18.1902253 0.777516155,18.4366988 L0.777516155,14.3549215 C0.774346285,14.3559923 0.692390051,14.3847977 0.5,14.4525386 C0.590801163,13.9487976 0.614575108,13.4780597 0.763507458,13.0540851 C1.22497776,11.7405807 1.74836229,10.4502277 2.21489427,9.13855446 C2.33693386,8.79530986 2.3895942,8.4068333 2.38821427,8.03958064 C2.38305053,6.67953789 2.60688324,5.38378792 3.31529638,4.21595958 C3.48774683,3.93172855 3.73228599,3.69390739 3.98648895,3.38229518 C4.25127459,4.07407429 4.4656483,4.6341089 4.73585394,5.33994804 C8.39836378,1.73314911 10.1258758,1.18175612 15.0356221,0.5 L15.0356221,0.5 Z M16.384136,1.30398093 C12.0313107,1.13180179 8.08513372,2.71897879 5.27351071,6.06093946 C5.67208732,6.11535916 5.98564763,6.1890003 6.30038414,6.19470784 C7.07873836,6.20887495 7.85852399,6.21270853 8.63585533,6.17643944 C8.90636762,6.1636537 9.23383443,6.09621268 9.42801421,5.92464392 C10.341905,5.11728987 11.4221582,4.75229667 12.5761953,4.56158143 C12.7459362,4.53366483 12.9305595,4.60118081 13.1546398,4.63074649 C12.618022,5.22248844 12.0928983,5.67017132 11.7285197,6.22925289 C10.8010237,7.65217491 11.4375551,8.86654163 13.10163,8.93539615 C13.516874,8.95259372 13.9334047,8.93539615 14.3490669,8.94470168 C15.2163317,8.96362329 15.467421,9.37093579 15.0588568,10.1689843 C14.9268575,10.4269478 14.6771514,10.6421316 14.4398185,10.8171805 C13.9143838,11.2044364 13.3693813,11.5649856 12.8195647,11.9150514 C12.3801209,12.1949563 12.2892729,12.5742451 12.3747599,13.0750734 C12.4562583,13.5530822 12.4674521,14.0439625 12.5208801,14.6597232 C12.1616053,14.5402397 11.942071,14.4851347 11.7368507,14.3955167 C11.2145887,14.1674616 10.7247941,14.1853124 10.3690532,14.674233 C10.0117802,15.165306 10.0641842,15.6942865 10.3747284,16.2098708 C11.0705646,17.3655238 12.7346888,18.0641134 13.9998172,17.6897397 C14.5964249,17.5131916 15.1631074,17.2235207 15.7631355,17.0655944 C16.8599597,16.7766088 17.8292663,17.0779625 18.5902862,17.9430237 C19.0098834,18.4199296 18.825421,19.0513887 18.2584276,19.0494291 C17.440806,19.0466342 16.9036735,19.5648957 16.261111,19.923042 C15.5601561,20.3139279 14.8191329,20.6526172 14.0608686,20.9016949 C13.5305339,21.0758262 12.9418069,21.0614267 12.2143256,21.1517289 C14.1602085,22.4007124 15.9942817,23.4422093 18.2679381,22.9845731 C20.5250825,22.5301536 21.8048358,20.7782665 23.0622979,18.9949023 C23.1240569,19.0333131 23.1858268,19.0718416 23.2475858,19.1102845 C23.1441072,19.7265806 23.0404677,20.3427269 22.9369891,20.959023 C24.2720575,19.0951215 24.2249233,16.9467534 24.1287571,14.7879018 C24.1850909,14.7638509 24.2414353,14.7400249 24.2977797,14.7160169 C24.6068861,14.9919061 24.915896,15.2679346 25.2399381,15.5569201 C25.6933849,13.7054617 25.6213005,11.8799709 25.2831481,9.97375015 C25.5059525,10.0487727 25.605657,10.0565469 25.6717049,10.1092426 C25.8862319,10.2802759 26.0886002,10.4675431 26.3642215,10.7086945 C25.3329949,7.52036616 22.9942985,5.99664669 20.0573754,5.17063874 C20.0879976,5.10135589 20.1187806,5.03196595 20.1493492,4.96272593 C20.9582324,4.8120384 21.7669011,4.66149008 22.5757735,4.51080256 C22.5820674,4.44489283 22.5884041,4.37898309 22.5947409,4.31307336 C21.3763392,3.94186933 20.157884,3.57075096 18.9396432,3.19957906 C20.0701025,2.76496033 21.1783242,3.07401325 22.4785888,3.26453575 C20.6364311,2.0152599 18.5257501,1.65459285 16.384136,1.30398093 L16.384136,1.30398093 Z" id="firefox-fox" fill="#E87E28" /> </g> </g> </g> </symbol><symbol viewBox="0 0 32 32" id="icon-ie"><g id="ie-Browser" stroke="none" stroke-width="1" fill="none" fill-rule="evenodd">  <g id="ie-ie" fill="#1DBBEE"> <path d="M26.8572471,1.5 L28.3528996,1.70790886 C32.9963705,2.91334492 30.115518,10.1467801 30.115466,10.1467697 C30.115518,10.1467801 29.7142332,9.49138008 29.7141605,9.49132826 C33.004004,0.00868407425 23.1347849,4.28415455 23.1346811,4.28407164 C23.1347849,4.28415455 22.7231975,4.20361319 22.7230936,4.20354064 C28.0686727,5.9872867 30.6799837,11.404722 30.9928546,17.3645029 C31.0231291,17.939714 30.9517581,18.506789 30.8800653,19.0637381 L12.2186298,19.0637381 C12.7968775,22.5927712 15.0227939,24.1812259 18.0586435,24.1811327 C20.3471757,24.1812259 22.2811486,23.1964987 23.3735534,21.0567994 L30.6713116,21.0567994 C28.8239559,26.4690753 24.284166,30.3752551 18.0868927,30.3751788 C15.7476677,30.3752551 13.5441844,29.8158951 11.6055587,28.832031 L11.6873985,28.8770123 C11.6874608,28.8770558 8.33122731,31.0329137 4.07724195,30.3751788 C-0.010796498,29.7430608 1.01259911,24.2361207 1.41153,22.7013108 C2.07026446,20.1668884 4.07728869,16.7815186 4.07724195,16.7815082 C5.64286434,12.9988419 11.0537127,8.39516353 11.0536649,8.39509098 C7.87749654,10.4231455 5.05611386,13.6605434 4.26885912,14.5378338 C5.37449748,8.14699954 11.1400806,3.46200251 18.0868927,3.46197141 C18.4437992,3.46200251 18.7953154,3.47823308 19.143851,3.50228873 C19.1439133,3.50233019 18.9375484,3.46200251 18.937486,3.46197141 C21.8358282,2.03529794 23.688408,1.83088187 26.8572471,1.5 L26.8572471,1.5 Z M4.87912607,21.3172555 C4.87921746,21.3172628 4.88104951,21.3278261 4.8809955,21.3277235 C4.88104951,21.3278261 0.333785496,29.4982782 6.40271627,29.552975 C8.38798131,29.4982782 10.7416176,28.3582082 10.741573,28.3581729 C10.7416176,28.3582082 10.7590003,28.3677713 10.7589172,28.3677081 C8.05201565,26.7524066 5.95589929,24.2691457 4.87912607,21.3172555 L4.87912607,21.3172555 Z M18.2333319,9.76629446 C15.0382895,9.76629446 13.0231934,11.8806011 12.4047425,14.9354103 L23.8074702,14.9354103 C23.4094362,11.8571051 21.7598252,9.76629446 18.2333319,9.76629446 L18.2333319,9.76629446 Z" /> </g> </g> </symbol><symbol viewBox="0 0 32 32" id="icon-required"><g id="required-Browser" stroke="none" stroke-width="1" fill="none" fill-rule="evenodd"> <g id="required-required" fill="#B94A48"> <path d="M18.1428571,24.8046875 L18.1428571,21.6238839 C18.1428571,21.4676331 18.0898443,21.3364961 17.983817,21.2304688 C17.8777896,21.1244414 17.7522329,21.0714286 17.6071429,21.0714286 L14.3928571,21.0714286 C14.2477671,21.0714286 14.1222104,21.1244414 14.016183,21.2304688 C13.9101557,21.3364961 13.8571429,21.4676331 13.8571429,21.6238839 L13.8571429,24.8046875 C13.8571429,24.9609383 13.9101557,25.0920754 14.016183,25.1981027 C14.1222104,25.30413 14.2477671,25.3571429 14.3928571,25.3571429 L17.6071429,25.3571429 C17.7522329,25.3571429 17.8777896,25.30413 17.983817,25.1981027 C18.0898443,25.0920754 18.1428571,24.9609383 18.1428571,24.8046875 L18.1428571,24.8046875 Z M18.109375,18.5435268 L18.4107143,10.859375 C18.4107143,10.7254458 18.3549113,10.61942 18.2433036,10.5412946 C18.0982136,10.4185262 17.9642863,10.3571429 17.8415179,10.3571429 L14.1584821,10.3571429 C14.0357137,10.3571429 13.9017864,10.4185262 13.7566964,10.5412946 C13.6450887,10.61942 13.5892857,10.7366064 13.5892857,10.8928571 L13.8738839,18.5435268 C13.8738839,18.6551345 13.9296869,18.7472095 14.0412946,18.8197545 C14.1529023,18.8922995 14.2868296,18.9285714 14.4430804,18.9285714 L17.5401786,18.9285714 C17.6964294,18.9285714 17.8275664,18.8922995 17.9335938,18.8197545 C18.0396211,18.7472095 18.0982142,18.6551345 18.109375,18.5435268 L18.109375,18.5435268 Z M17.875,2.90736607 L30.7321429,26.4787946 C31.1227698,27.1819232 31.1116092,27.8850411 30.6986607,28.5881696 C30.5089276,28.911832 30.2494436,29.1685258 29.9202009,29.3582589 C29.5909582,29.547992 29.236609,29.6428571 28.8571429,29.6428571 L3.14285714,29.6428571 C2.76339096,29.6428571 2.40904182,29.547992 2.07979911,29.3582589 C1.75055639,29.1685258 1.49107238,28.911832 1.30133929,28.5881696 C0.888390792,27.8850411 0.87723019,27.1819232 1.26785714,26.4787946 L14.125,2.90736607 C14.3147331,2.5613822 14.5770073,2.28794743 14.9118304,2.08705357 C15.2466535,1.88615971 15.609373,1.78571429 16,1.78571429 C16.390627,1.78571429 16.7533465,1.88615971 17.0881696,2.08705357 C17.4229927,2.28794743 17.6852669,2.5613822 17.875,2.90736607 L17.875,2.90736607 Z" id="required-&#xF071;" /> </g> </g> </symbol><symbol viewBox="0 0 32 32" id="icon-rocket"><g id="rocket-Browser" stroke="none" stroke-width="1" fill="none" fill-rule="evenodd"> <g id="rocket-rocket" fill="#FFFFFF"> <path d="M26.0250689,11.392507 C26.0250689,10.9431292 25.8678821,10.5611637 25.5535036,10.2465993 C25.2391251,9.93203478 24.8573855,9.7747549 24.4082734,9.7747549 C23.9591613,9.7747549 23.5774217,9.93203478 23.2630432,10.2465993 C22.9486647,10.5611637 22.7914779,10.9431292 22.7914779,11.392507 C22.7914779,11.8418848 22.9486647,12.2238502 23.2630432,12.5384147 C23.5774217,12.8529792 23.9591613,13.0102591 24.4082734,13.0102591 C24.8573855,13.0102591 25.2391251,12.8529792 25.5535036,12.5384147 C25.8678821,12.2238502 26.0250689,11.8418848 26.0250689,11.392507 L26.0250689,11.392507 Z M29.7975919,6.5392507 C29.7975919,9.33662769 29.3737487,11.7548059 28.5260496,13.7938578 C27.6783504,15.8329097 26.2552478,17.8578881 24.2566988,19.8688539 C23.3472468,20.7676096 22.2525524,21.756226 20.9725829,22.8347328 L20.6357505,29.2214832 C20.6132949,29.4012344 20.5234738,29.54728 20.3662845,29.6596244 L13.8991024,33.4343793 C13.8205078,33.4793171 13.7306867,33.5017857 13.6296365,33.5017857 C13.4949028,33.5017857 13.365785,33.4512314 13.2422792,33.3501214 L12.1644155,32.27162 C12.0184541,32.1143378 11.9735435,31.9345893 12.0296825,31.7323693 L13.4612203,27.081332 L8.72872497,22.3460368 L4.08043779,23.7784215 C4.04675438,23.7896559 3.99623002,23.7952731 3.9288632,23.7952731 C3.77167396,23.7952731 3.64255616,23.7447188 3.54150594,23.6436088 L2.46364224,22.5651074 C2.27276959,22.351653 2.24470051,22.1325845 2.37943414,21.9078956 L6.15195707,15.4368872 C6.2642351,15.279605 6.41019435,15.1897308 6.5898392,15.1672619 L12.9728133,14.8302302 C14.0506824,13.5495034 15.0387142,12.4541614 15.9369384,11.5441713 C18.0477654,9.4433299 20.057512,7.99410814 21.9662385,7.19646249 C23.874965,6.39881684 26.2945202,6 29.2249768,6 C29.382166,6 29.5168976,6.05336282 29.6291757,6.16009005 C29.7414537,6.26681729 29.7975919,6.3932029 29.7975919,6.5392507 L29.7975919,6.5392507 Z"  transform="translate(16.046699, 19.750893) rotate(-45.000000) translate(-16.046699, -19.750893) "/> </g> </g> </symbol><symbol viewBox="0 0 32 32" id="icon-safari"><g id="safari-Browser" stroke="none" stroke-width="1" fill="none" fill-rule="evenodd">  <g id="safari-safari"> <g transform="translate(1.000000, 1.000000)"> <circle id="safari-oval" fill="#56AFEF"  cx="15" cy="15" r="15"/> <path d="M8.96235017,16.039328 C9.39650683,18.6016172 11.4084659,20.6240119 13.958852,21.0626477 L15,26.5 L16.041148,21.0626477 C18.5915341,20.6240119 20.6034932,18.6016172 21.0376498,16.039328 L26.4654971,15 L21.0376498,13.960672 C20.6034932,11.3983828 18.5915341,9.37598808 16.041148,8.93735227 L15,3.5 L13.958852,8.93735227 C11.4084659,9.37598808 9.39650683,11.3983828 8.96235017,13.960672 L3.53450292,15 L8.96235017,16.039328 Z M10.4879913,15.3721976 C10.6765206,17.7090743 12.6246048,19.5465116 15,19.5465116 C17.3753952,19.5465116 19.3234794,17.7090743 19.5120087,15.3721976 L19.5120087,14.6278024 C19.3234794,12.2909257 17.3753952,10.4534884 15,10.4534884 C12.6246048,10.4534884 10.6765206,12.2909257 10.4879913,14.6278024 L10.4879913,15.3721976 Z" id="safari-compass" fill="#FFFFFF" /> <g id="safari-directional" transform="translate(14.707525, 14.916327) rotate(91.000000) translate(-14.707525, -14.916327) translate(2.707525, 2.416327)" > <polygon id="safari-Triangle-5" fill="#F64747" transform="translate(6.952570, 7.076760) rotate(-45.000000) translate(-6.952570, -7.076760) " points="6.97867326 -0.165359388 9.30650625 14.3188802 4.59863386 14.3188804 "/> <polygon id="safari-Triangle-6" fill="#E7D9D9" transform="translate(17.034360, 17.236639) scale(-1, -1) rotate(-45.000000) translate(-17.034360, -17.236639) " points="17.0545502 9.99451924 19.3942088 24.4787588 14.6745108 24.478759 "/> <ellipse id="safari-Oval-4" fill="#FFFFFF" cx="11.9968467" cy="12.1682302" rx="2.38003939" ry="2.41403996"/> </g> </g> </g> </g> </symbol></svg>
