<?xml version="1.0" encoding="UTF-8" standalone="no"?>
<svg width="32px" height="32px" viewBox="0 0 32 32" version="1.1" xmlns="http://www.w3.org/2000/svg" xmlns:xlink="http://www.w3.org/1999/xlink" xmlns:sketch="http://www.bohemiancoding.com/sketch/ns">
    <!-- Generator: Sketch 3.4 (15575) - http://www.bohemiancoding.com/sketch -->
    <title>calendar</title>
    <desc>Created with Sketch.</desc>
    <defs></defs>
    <g id="Browser" stroke="none" stroke-width="1" fill="none" fill-rule="evenodd" sketch:type="MSPage">
        <g id="calendar" sketch:type="MSArtboardGroup" fill="#FFFFFF">
            <path d="M4.15384615,28.8571429 L9,28.8571429 L9,24.0357143 L4.15384615,24.0357143 L4.15384615,28.8571429 Z M10.0769231,28.8571429 L15.4615385,28.8571429 L15.4615385,24.0357143 L10.0769231,24.0357143 L10.0769231,28.8571429 Z M4.15384615,22.9642857 L9,22.9642857 L9,17.6071429 L4.15384615,17.6071429 L4.15384615,22.9642857 Z M10.0769231,22.9642857 L15.4615385,22.9642857 L15.4615385,17.6071429 L10.0769231,17.6071429 L10.0769231,22.9642857 Z M4.15384615,16.5357143 L9,16.5357143 L9,11.7142857 L4.15384615,11.7142857 L4.15384615,16.5357143 Z M16.5384615,28.8571429 L21.9230769,28.8571429 L21.9230769,24.0357143 L16.5384615,24.0357143 L16.5384615,28.8571429 Z M10.0769231,16.5357143 L15.4615385,16.5357143 L15.4615385,11.7142857 L10.0769231,11.7142857 L10.0769231,16.5357143 Z M23,28.8571429 L27.8461538,28.8571429 L27.8461538,24.0357143 L23,24.0357143 L23,28.8571429 Z M16.5384615,22.9642857 L21.9230769,22.9642857 L21.9230769,17.6071429 L16.5384615,17.6071429 L16.5384615,22.9642857 Z M10.6153846,8.5 L10.6153846,3.67857143 C10.6153846,3.53348142 10.5620999,3.40792464 10.4555288,3.30189732 C10.3489578,3.19587001 10.2227571,3.14285714 10.0769231,3.14285714 L9,3.14285714 C8.85416594,3.14285714 8.72796528,3.19587001 8.62139423,3.30189732 C8.51482319,3.40792464 8.46153846,3.53348142 8.46153846,3.67857143 L8.46153846,8.5 C8.46153846,8.64509001 8.51482319,8.77064679 8.62139423,8.87667411 C8.72796528,8.98270142 8.85416594,9.03571429 9,9.03571429 L10.0769231,9.03571429 C10.2227571,9.03571429 10.3489578,8.98270142 10.4555288,8.87667411 C10.5620999,8.77064679 10.6153846,8.64509001 10.6153846,8.5 L10.6153846,8.5 Z M23,22.9642857 L27.8461538,22.9642857 L27.8461538,17.6071429 L23,17.6071429 L23,22.9642857 Z M16.5384615,16.5357143 L21.9230769,16.5357143 L21.9230769,11.7142857 L16.5384615,11.7142857 L16.5384615,16.5357143 Z M23,16.5357143 L27.8461538,16.5357143 L27.8461538,11.7142857 L23,11.7142857 L23,16.5357143 Z M23.5384615,8.5 L23.5384615,3.67857143 C23.5384615,3.53348142 23.4851768,3.40792464 23.3786058,3.30189732 C23.2720347,3.19587001 23.1458341,3.14285714 23,3.14285714 L21.9230769,3.14285714 C21.7772429,3.14285714 21.6510422,3.19587001 21.5444712,3.30189732 C21.4379001,3.40792464 21.3846154,3.53348142 21.3846154,3.67857143 L21.3846154,8.5 C21.3846154,8.64509001 21.4379001,8.77064679 21.5444712,8.87667411 C21.6510422,8.98270142 21.7772429,9.03571429 21.9230769,9.03571429 L23,9.03571429 C23.1458341,9.03571429 23.2720347,8.98270142 23.3786058,8.87667411 C23.4851768,8.77064679 23.5384615,8.64509001 23.5384615,8.5 L23.5384615,8.5 Z M30,7.42857143 L30,28.8571429 C30,29.4375029 29.7868611,29.93973 29.3605769,30.3638393 C28.9342927,30.7879485 28.4294901,31 27.8461538,31 L4.15384615,31 C3.5705099,31 3.06570726,30.7879485 2.63942308,30.3638393 C2.21313889,29.93973 2,29.4375029 2,28.8571429 L2,7.42857143 C2,6.84821138 2.21313889,6.34598426 2.63942308,5.921875 C3.06570726,5.49776574 3.5705099,5.28571429 4.15384615,5.28571429 L6.30769231,5.28571429 L6.30769231,3.67857143 C6.30769231,2.9419606 6.57131147,2.31138655 7.09855769,1.78683036 C7.62580392,1.26227416 8.25961168,1 9,1 L10.0769231,1 C10.8173114,1 11.4511192,1.26227416 11.9783654,1.78683036 C12.5056116,2.31138655 12.7692308,2.9419606 12.7692308,3.67857143 L12.7692308,5.28571429 L19.2307692,5.28571429 L19.2307692,3.67857143 C19.2307692,2.9419606 19.4943884,2.31138655 20.0216346,1.78683036 C20.5488808,1.26227416 21.1826886,1 21.9230769,1 L23,1 C23.7403883,1 24.3741961,1.26227416 24.9014423,1.78683036 C25.4286885,2.31138655 25.6923077,2.9419606 25.6923077,3.67857143 L25.6923077,5.28571429 L27.8461538,5.28571429 C28.4294901,5.28571429 28.9342927,5.49776574 29.3605769,5.921875 C29.7868611,6.34598426 30,6.84821138 30,7.42857143 L30,7.42857143 Z" sketch:type="MSShapeGroup"></path>
        </g>
    </g>
</svg>