<?xml version="1.0" encoding="UTF-8" standalone="no"?>
<svg width="32px" height="32px" viewBox="0 0 32 32" version="1.1" xmlns="http://www.w3.org/2000/svg" xmlns:xlink="http://www.w3.org/1999/xlink" xmlns:sketch="http://www.bohemiancoding.com/sketch/ns">
    <!-- Generator: Sketch 3.4 (15575) - http://www.bohemiancoding.com/sketch -->
    <title>chained</title>
    <desc>Created with Sketch.</desc>
    <defs></defs>
    <g id="Browser" stroke="none" stroke-width="1" fill="none" fill-rule="evenodd" sketch:type="MSPage">
        <g id="chained" sketch:type="MSArtboardGroup" fill="#FFFFFF">
            <g id="rocketheld" sketch:type="MSLayerGroup" transform="translate(1.000000, 0.500000)">
                <path d="M5.44766667,24.5542941 C5.18766667,24.8168695 5.18733333,25.242504 5.44766667,25.5050794 C5.70766667,25.7676549 6.13033333,25.7676549 6.39033333,25.5050794 L9.21866667,22.6527234 C9.479,22.390148 9.479,21.9641774 9.21866667,21.7019381 C8.95833333,21.4393627 8.53633333,21.4393627 8.276,21.7019381 L5.44766667,24.5542941 Z M13.226,16.7093065 L10.3976667,19.5616625 C10.1373333,19.824238 10.137,20.2502086 10.3973333,20.5127841 C10.6576667,20.7750233 11.08,20.7750233 11.3403333,20.5124478 L14.1686667,17.6600919 C14.429,17.3975164 14.429,16.9715458 14.1686667,16.7093065 C13.9083333,16.4467311 13.4863333,16.4467311 13.226,16.7093065 Z M4.269,26.6938973 C4.00866667,26.4313219 3.58666667,26.4316581 3.32633333,26.6938973 L0.498333333,29.5465895 C0.238,29.8091649 0.238,30.2347994 0.498333333,30.4973748 C0.758333333,30.7599502 1.18066667,30.7599502 1.441,30.4973748 L4.269,27.6446826 C4.52933333,27.3824434 4.52933333,26.9564727 4.269,26.6938973 Z M3.03633333,25.0841518 L3.85133333,24.2621327 C4.21266667,23.8976874 4.71933333,23.7551368 5.23166667,23.8210329 L6.16733333,22.8773078 C5.16933333,22.4762163 4.06766667,22.6180944 3.348,23.343623 L2.12566667,24.5764836 C1.40633333,25.3023483 1.26566667,26.413503 1.66333333,27.4200982 L2.599,26.4763732 C2.53433333,25.9596274 2.675,25.4485971 3.03633333,25.0841518 Z M6.68,27.1151611 L5.86533333,27.936844 C5.504,28.3012893 4.99733333,28.4435037 4.48433333,28.3779439 L3.549,29.3213327 C4.547,29.7224242 5.649,29.5808823 6.36833333,28.8550175 L7.59033333,27.6224931 C8.31,26.8969646 8.45033333,25.7854737 8.05266667,24.7788785 L7.11733333,25.7222673 C7.18266667,26.2393493 7.04133333,26.7507158 6.68,27.1151611 Z M7.98633333,20.0918565 L8.80133333,19.2698373 C9.16266667,18.9057282 9.66933333,18.7635139 10.1816667,18.8287375 L11.1173333,17.8853486 C10.119,17.4845933 9.017,17.6261352 8.298,18.3513276 L7.07566667,19.5845244 C6.35633333,20.310053 6.21566667,21.4212077 6.61333333,22.4278029 L7.549,21.484414 C7.48366667,20.9673321 7.625,20.4563018 7.98633333,20.0918565 Z M11.63,22.1228657 L10.815,22.9448848 C10.4536667,23.3093301 9.947,23.4515445 9.43433333,23.3859847 L8.499,24.3290373 C9.497,24.7301289 10.5986667,24.5889231 11.3183333,23.8630584 L12.5403333,22.6301978 C13.2596667,21.9046692 13.4003333,20.7935145 13.0026667,19.7869193 L12.0673333,20.7299719 C12.132,21.2473901 11.991,21.7584204 11.63,22.1228657 Z" id="chain" sketch:type="MSShapeGroup"></path>
                <path d="M26.3680478,5.53392906 C26.3680478,5.13630001 26.2291603,4.79832039 25.9513812,4.51998005 C25.673602,4.24163971 25.3363038,4.10247163 24.9394764,4.10247163 C24.542649,4.10247163 24.2053508,4.24163971 23.9275716,4.51998005 C23.6497925,4.79832039 23.510905,5.13630001 23.510905,5.53392906 C23.510905,5.93155812 23.6497925,6.26953774 23.9275716,6.54787808 C24.2053508,6.82621841 24.542649,6.9653865 24.9394764,6.9653865 C25.3363038,6.9653865 25.673602,6.82621841 25.9513812,6.54787808 C26.2291603,6.26953774 26.3680478,5.93155812 26.3680478,5.53392906 L26.3680478,5.53392906 Z M29.7013812,1.23955677 C29.7013812,3.71479762 29.3268809,5.85450686 28.5778693,7.65874869 C27.8288576,9.46299051 26.5714297,11.2547796 24.8055478,13.0341696 C24.0019724,13.8294277 23.0347201,14.7041985 21.9037621,15.6585082 L21.6061431,21.3097828 C21.5863017,21.4688345 21.5069374,21.598062 21.3680478,21.6974692 L15.6537621,25.0375366 C15.5843173,25.0772995 15.504953,25.0971806 15.4156669,25.0971806 C15.2966187,25.0971806 15.1825325,25.052448 15.073405,24.9629815 L14.121024,24.0086765 C13.9920551,23.8695064 13.952373,23.7104571 14.0019764,23.5315241 L15.2668574,19.4160839 L11.0853097,15.2260888 L6.97816688,16.493525 C6.94840482,16.5034658 6.90376241,16.508436 6.8442383,16.508436 C6.70534872,16.508436 6.59126256,16.4637034 6.5019764,16.3742369 L5.54959545,15.419932 C5.38094381,15.2310582 5.35614247,15.0372169 5.47519069,14.8384024 L8.80852402,9.11257264 C8.90773086,8.97340247 9.03669783,8.89387786 9.19542878,8.8739964 L14.8353097,8.57577611 C15.7876954,7.44253331 16.6607026,6.47332703 17.4543574,5.6681282 C19.319446,3.80921238 21.0952219,2.52687792 22.7817383,1.82108635 C24.4682547,1.11529478 26.6061301,0.762404293 29.1954288,0.762404293 C29.3343184,0.762404293 29.4533648,0.809622034 29.5525716,0.904058934 C29.6517785,0.998495834 29.7013812,1.11032733 29.7013812,1.23955677 L29.7013812,1.23955677 Z" id="rocket" sketch:type="MSShapeGroup"></path>
            </g>
        </g>
    </g>
</svg>