<?xml version="1.0" encoding="UTF-8" standalone="no"?>
<svg width="32px" height="32px" viewBox="0 0 32 32" version="1.1" xmlns="http://www.w3.org/2000/svg" xmlns:xlink="http://www.w3.org/1999/xlink" xmlns:sketch="http://www.bohemiancoding.com/sketch/ns">
    <!-- Generator: Sketch 3.4 (15575) - http://www.bohemiancoding.com/sketch -->
    <title>chrome</title>
    <desc>Created with Sketch.</desc>
    <defs></defs>
    <g id="Browser" stroke="none" stroke-width="1" fill="none" fill-rule="evenodd" sketch:type="MSPage">
        <g id="Artboard-19" sketch:type="MSArtboardGroup"></g>
        <g id="chrome" sketch:type="MSArtboardGroup">
            <g sketch:type="MSLayerGroup" transform="translate(1.000000, 1.000000)">
                <path d="M28.9447714,9.73211786 L18.60315,9.73211786 C20.4761464,10.9011429 21.6561643,12.5784429 21.6561643,14.95005 C21.6561643,16.5752357 21.0698143,18.0628714 20.0985964,19.2151393 L13.9947,29.9659359 C14.3246893,29.9876235 14.6573893,30 14.9928964,30 C23.2731536,30 29.985675,23.2832507 29.985675,14.997675 C29.985675,12.9921857 29.6582893,11.4807214 28.9447714,9.73211786 L28.9447714,9.73211786 Z" id="Fill-1" fill="#FBDE00" sketch:type="MSShapeGroup"></path>
                <path d="M28.4477679,8.60015357 C26.0027679,3.63687857 20.8968107,0.0648642857 14.9928857,0.0648642857 C10.202205,0.0648642857 5.93641929,2.31317143 3.19172786,5.81284286 L8.42913643,14.8370571 C8.52600321,11.2655036 11.3958107,8.60382857 14.9884929,8.60382857 C15.2428179,8.60382857 28.4477679,8.60015357 28.4477679,8.60015357 L28.4477679,8.60015357 Z" id="Fill-2" fill="#F05745" sketch:type="MSShapeGroup"></path>
                <path d="M9.62519893,15.0404036 C9.62519893,18.0015321 12.0242143,20.4018375 14.9833821,20.4018375 C17.94255,20.4018375 20.3414679,18.0015321 20.3414679,15.0404036 C20.3414679,12.0794464 17.94255,9.67901786 14.9833821,9.67901786 C12.0242143,9.67901786 9.62519893,12.0794464 9.62519893,15.0404036 L9.62519893,15.0404036 Z" id="Fill-3" fill="#67BCFF" sketch:type="MSShapeGroup"></path>
                <path d="M8.85793179,17.3764714 C8.81281929,17.4026893 2.57604429,6.65676429 2.57604429,6.65676429 C0.950115107,9.0555 0,11.9502536 0,15.0670607 C0,22.6607721 5.63871857,28.9356088 12.9549643,29.930785 L18.0840643,20.8967604 C17.1726214,21.3702846 16.1382643,21.6394254 15.0404464,21.6394254 C12.2166214,21.6394254 9.8073825,19.8684782 8.85793179,17.3764714 Z" id="Fill-4" fill="#49BB44" sketch:type="MSShapeGroup"></path>
            </g>
        </g>
    </g>
</svg>