<?xml version="1.0" encoding="UTF-8" standalone="no"?>
<svg width="32px" height="32px" viewBox="0 0 32 32" version="1.1" xmlns="http://www.w3.org/2000/svg" xmlns:xlink="http://www.w3.org/1999/xlink" xmlns:sketch="http://www.bohemiancoding.com/sketch/ns">
    <!-- Generator: Sketch 3.4 (15575) - http://www.bohemiancoding.com/sketch -->
    <title>firefox_icon</title>
    <desc>Created with Sketch.</desc>
    <defs></defs>
    <g id="Browser" stroke="none" stroke-width="1" fill="none" fill-rule="evenodd" sketch:type="MSPage">
        <g id="Artboard-19" sketch:type="MSArtboardGroup" transform="translate(-66.000000, 0.000000)"></g>
        <g id="firefox_icon" sketch:type="MSArtboardGroup">
            <g id="firefox" sketch:type="MSLayerGroup" transform="translate(0.500000, 0.500000)">
                <circle id="oval" fill="#56AFEF" sketch:type="MSShapeGroup" cx="15.5" cy="15.5" r="14.5"></circle>
                <path d="M15.0356221,0.5 L16.7498655,0.568640353 C21.3733799,1.01429936 24.991776,3.45146024 27.8873871,6.9865134 C27.7851308,6.57659878 27.6501078,6.0361604 27.515235,5.49580769 C27.5874266,5.47306321 27.6597684,5.45023307 27.7320673,5.42748859 C29.3863208,7.46797033 29.5225767,10.0549407 30.0016385,12.6140693 C30.0938697,12.2106547 30.1691815,11.8803136 30.2447398,11.5500582 C30.2869204,11.5487518 30.3290045,11.5473383 30.371228,11.5459569 C30.4154029,11.687114 30.4969013,11.8279285 30.4982845,11.9693961 C30.5406152,16.4335891 29.8113433,20.7003345 27.3092963,24.4639065 C25.0920273,27.7993308 21.9236577,29.568757 18.1122001,30.2354129 C14.8807848,30.8004313 11.7483555,30.5029867 8.82446285,28.9302487 C4.62332374,26.6702902 2.22302374,22.9753435 1.1372953,18.2941282 C1.12129262,18.2253058 1.09133239,18.1598244 1.04327321,18.0222224 C0.978086498,18.1239729 0.935549071,18.1902253 0.777516155,18.4366988 L0.777516155,14.3549215 C0.774346285,14.3559923 0.692390051,14.3847977 0.5,14.4525386 C0.590801163,13.9487976 0.614575108,13.4780597 0.763507458,13.0540851 C1.22497776,11.7405807 1.74836229,10.4502277 2.21489427,9.13855446 C2.33693386,8.79530986 2.3895942,8.4068333 2.38821427,8.03958064 C2.38305053,6.67953789 2.60688324,5.38378792 3.31529638,4.21595958 C3.48774683,3.93172855 3.73228599,3.69390739 3.98648895,3.38229518 C4.25127459,4.07407429 4.4656483,4.6341089 4.73585394,5.33994804 C8.39836378,1.73314911 10.1258758,1.18175612 15.0356221,0.5 L15.0356221,0.5 Z M16.384136,1.30398093 C12.0313107,1.13180179 8.08513372,2.71897879 5.27351071,6.06093946 C5.67208732,6.11535916 5.98564763,6.1890003 6.30038414,6.19470784 C7.07873836,6.20887495 7.85852399,6.21270853 8.63585533,6.17643944 C8.90636762,6.1636537 9.23383443,6.09621268 9.42801421,5.92464392 C10.341905,5.11728987 11.4221582,4.75229667 12.5761953,4.56158143 C12.7459362,4.53366483 12.9305595,4.60118081 13.1546398,4.63074649 C12.618022,5.22248844 12.0928983,5.67017132 11.7285197,6.22925289 C10.8010237,7.65217491 11.4375551,8.86654163 13.10163,8.93539615 C13.516874,8.95259372 13.9334047,8.93539615 14.3490669,8.94470168 C15.2163317,8.96362329 15.467421,9.37093579 15.0588568,10.1689843 C14.9268575,10.4269478 14.6771514,10.6421316 14.4398185,10.8171805 C13.9143838,11.2044364 13.3693813,11.5649856 12.8195647,11.9150514 C12.3801209,12.1949563 12.2892729,12.5742451 12.3747599,13.0750734 C12.4562583,13.5530822 12.4674521,14.0439625 12.5208801,14.6597232 C12.1616053,14.5402397 11.942071,14.4851347 11.7368507,14.3955167 C11.2145887,14.1674616 10.7247941,14.1853124 10.3690532,14.674233 C10.0117802,15.165306 10.0641842,15.6942865 10.3747284,16.2098708 C11.0705646,17.3655238 12.7346888,18.0641134 13.9998172,17.6897397 C14.5964249,17.5131916 15.1631074,17.2235207 15.7631355,17.0655944 C16.8599597,16.7766088 17.8292663,17.0779625 18.5902862,17.9430237 C19.0098834,18.4199296 18.825421,19.0513887 18.2584276,19.0494291 C17.440806,19.0466342 16.9036735,19.5648957 16.261111,19.923042 C15.5601561,20.3139279 14.8191329,20.6526172 14.0608686,20.9016949 C13.5305339,21.0758262 12.9418069,21.0614267 12.2143256,21.1517289 C14.1602085,22.4007124 15.9942817,23.4422093 18.2679381,22.9845731 C20.5250825,22.5301536 21.8048358,20.7782665 23.0622979,18.9949023 C23.1240569,19.0333131 23.1858268,19.0718416 23.2475858,19.1102845 C23.1441072,19.7265806 23.0404677,20.3427269 22.9369891,20.959023 C24.2720575,19.0951215 24.2249233,16.9467534 24.1287571,14.7879018 C24.1850909,14.7638509 24.2414353,14.7400249 24.2977797,14.7160169 C24.6068861,14.9919061 24.915896,15.2679346 25.2399381,15.5569201 C25.6933849,13.7054617 25.6213005,11.8799709 25.2831481,9.97375015 C25.5059525,10.0487727 25.605657,10.0565469 25.6717049,10.1092426 C25.8862319,10.2802759 26.0886002,10.4675431 26.3642215,10.7086945 C25.3329949,7.52036616 22.9942985,5.99664669 20.0573754,5.17063874 C20.0879976,5.10135589 20.1187806,5.03196595 20.1493492,4.96272593 C20.9582324,4.8120384 21.7669011,4.66149008 22.5757735,4.51080256 C22.5820674,4.44489283 22.5884041,4.37898309 22.5947409,4.31307336 C21.3763392,3.94186933 20.157884,3.57075096 18.9396432,3.19957906 C20.0701025,2.76496033 21.1783242,3.07401325 22.4785888,3.26453575 C20.6364311,2.0152599 18.5257501,1.65459285 16.384136,1.30398093 L16.384136,1.30398093 Z" id="fox" fill="#E87E28" sketch:type="MSShapeGroup"></path>
            </g>
        </g>
    </g>
</svg>