<?xml version="1.0" encoding="UTF-8" standalone="no"?>
<svg width="32px" height="32px" viewBox="0 0 32 32" version="1.1" xmlns="http://www.w3.org/2000/svg" xmlns:xlink="http://www.w3.org/1999/xlink" xmlns:sketch="http://www.bohemiancoding.com/sketch/ns">
    <!-- Generator: Sketch 3.4 (15575) - http://www.bohemiancoding.com/sketch -->
    <title>ie</title>
    <desc>Created with Sketch.</desc>
    <defs></defs>
    <g id="Browser" stroke="none" stroke-width="1" fill="none" fill-rule="evenodd" sketch:type="MSPage">
        <g id="Artboard-19" sketch:type="MSArtboardGroup" transform="translate(-99.000000, 0.000000)"></g>
        <g id="ie" sketch:type="MSArtboardGroup" fill="#1DBBEE">
            <path d="M26.8572471,1.5 L28.3528996,1.70790886 C32.9963705,2.91334492 30.115518,10.1467801 30.115466,10.1467697 C30.115518,10.1467801 29.7142332,9.49138008 29.7141605,9.49132826 C33.004004,0.00868407425 23.1347849,4.28415455 23.1346811,4.28407164 C23.1347849,4.28415455 22.7231975,4.20361319 22.7230936,4.20354064 C28.0686727,5.9872867 30.6799837,11.404722 30.9928546,17.3645029 C31.0231291,17.939714 30.9517581,18.506789 30.8800653,19.0637381 L12.2186298,19.0637381 C12.7968775,22.5927712 15.0227939,24.1812259 18.0586435,24.1811327 C20.3471757,24.1812259 22.2811486,23.1964987 23.3735534,21.0567994 L30.6713116,21.0567994 C28.8239559,26.4690753 24.284166,30.3752551 18.0868927,30.3751788 C15.7476677,30.3752551 13.5441844,29.8158951 11.6055587,28.832031 L11.6873985,28.8770123 C11.6874608,28.8770558 8.33122731,31.0329137 4.07724195,30.3751788 C-0.010796498,29.7430608 1.01259911,24.2361207 1.41153,22.7013108 C2.07026446,20.1668884 4.07728869,16.7815186 4.07724195,16.7815082 C5.64286434,12.9988419 11.0537127,8.39516353 11.0536649,8.39509098 C7.87749654,10.4231455 5.05611386,13.6605434 4.26885912,14.5378338 C5.37449748,8.14699954 11.1400806,3.46200251 18.0868927,3.46197141 C18.4437992,3.46200251 18.7953154,3.47823308 19.143851,3.50228873 C19.1439133,3.50233019 18.9375484,3.46200251 18.937486,3.46197141 C21.8358282,2.03529794 23.688408,1.83088187 26.8572471,1.5 L26.8572471,1.5 Z M4.87912607,21.3172555 C4.87921746,21.3172628 4.88104951,21.3278261 4.8809955,21.3277235 C4.88104951,21.3278261 0.333785496,29.4982782 6.40271627,29.552975 C8.38798131,29.4982782 10.7416176,28.3582082 10.741573,28.3581729 C10.7416176,28.3582082 10.7590003,28.3677713 10.7589172,28.3677081 C8.05201565,26.7524066 5.95589929,24.2691457 4.87912607,21.3172555 L4.87912607,21.3172555 Z M18.2333319,9.76629446 C15.0382895,9.76629446 13.0231934,11.8806011 12.4047425,14.9354103 L23.8074702,14.9354103 C23.4094362,11.8571051 21.7598252,9.76629446 18.2333319,9.76629446 L18.2333319,9.76629446 Z" sketch:type="MSShapeGroup"></path>
        </g>
    </g>
</svg>