<?xml version="1.0" encoding="UTF-8" standalone="no"?>
<svg width="32px" height="32px" viewBox="0 0 32 32" version="1.1" xmlns="http://www.w3.org/2000/svg" xmlns:xlink="http://www.w3.org/1999/xlink" xmlns:sketch="http://www.bohemiancoding.com/sketch/ns">
    <!-- Generator: Sketch 3.4 (15575) - http://www.bohemiancoding.com/sketch -->
    <title>required</title>
    <desc>Created with Sketch.</desc>
    <defs></defs>
    <g id="Browser" stroke="none" stroke-width="1" fill="none" fill-rule="evenodd" sketch:type="MSPage">
        <g id="required" sketch:type="MSArtboardGroup" fill="#B94A48">
            <path d="M18.1428571,24.8046875 L18.1428571,21.6238839 C18.1428571,21.4676331 18.0898443,21.3364961 17.983817,21.2304688 C17.8777896,21.1244414 17.7522329,21.0714286 17.6071429,21.0714286 L14.3928571,21.0714286 C14.2477671,21.0714286 14.1222104,21.1244414 14.016183,21.2304688 C13.9101557,21.3364961 13.8571429,21.4676331 13.8571429,21.6238839 L13.8571429,24.8046875 C13.8571429,24.9609383 13.9101557,25.0920754 14.016183,25.1981027 C14.1222104,25.30413 14.2477671,25.3571429 14.3928571,25.3571429 L17.6071429,25.3571429 C17.7522329,25.3571429 17.8777896,25.30413 17.983817,25.1981027 C18.0898443,25.0920754 18.1428571,24.9609383 18.1428571,24.8046875 L18.1428571,24.8046875 Z M18.109375,18.5435268 L18.4107143,10.859375 C18.4107143,10.7254458 18.3549113,10.61942 18.2433036,10.5412946 C18.0982136,10.4185262 17.9642863,10.3571429 17.8415179,10.3571429 L14.1584821,10.3571429 C14.0357137,10.3571429 13.9017864,10.4185262 13.7566964,10.5412946 C13.6450887,10.61942 13.5892857,10.7366064 13.5892857,10.8928571 L13.8738839,18.5435268 C13.8738839,18.6551345 13.9296869,18.7472095 14.0412946,18.8197545 C14.1529023,18.8922995 14.2868296,18.9285714 14.4430804,18.9285714 L17.5401786,18.9285714 C17.6964294,18.9285714 17.8275664,18.8922995 17.9335938,18.8197545 C18.0396211,18.7472095 18.0982142,18.6551345 18.109375,18.5435268 L18.109375,18.5435268 Z M17.875,2.90736607 L30.7321429,26.4787946 C31.1227698,27.1819232 31.1116092,27.8850411 30.6986607,28.5881696 C30.5089276,28.911832 30.2494436,29.1685258 29.9202009,29.3582589 C29.5909582,29.547992 29.236609,29.6428571 28.8571429,29.6428571 L3.14285714,29.6428571 C2.76339096,29.6428571 2.40904182,29.547992 2.07979911,29.3582589 C1.75055639,29.1685258 1.49107238,28.911832 1.30133929,28.5881696 C0.888390792,27.8850411 0.87723019,27.1819232 1.26785714,26.4787946 L14.125,2.90736607 C14.3147331,2.5613822 14.5770073,2.28794743 14.9118304,2.08705357 C15.2466535,1.88615971 15.609373,1.78571429 16,1.78571429 C16.390627,1.78571429 16.7533465,1.88615971 17.0881696,2.08705357 C17.4229927,2.28794743 17.6852669,2.5613822 17.875,2.90736607 L17.875,2.90736607 Z" id="ï±" sketch:type="MSShapeGroup"></path>
        </g>
    </g>
</svg>