<?xml version="1.0" encoding="UTF-8" standalone="no"?>
<svg width="32px" height="32px" viewBox="0 0 32 32" version="1.1" xmlns="http://www.w3.org/2000/svg" xmlns:xlink="http://www.w3.org/1999/xlink" xmlns:sketch="http://www.bohemiancoding.com/sketch/ns">
    <!-- Generator: Sketch 3.4 (15575) - http://www.bohemiancoding.com/sketch -->
    <title>rocket</title>
    <desc>Created with Sketch.</desc>
    <defs></defs>
    <g id="Browser" stroke="none" stroke-width="1" fill="none" fill-rule="evenodd" sketch:type="MSPage">
        <g id="rocket" sketch:type="MSArtboardGroup" fill="#FFFFFF">
            <path d="M26.0250689,11.392507 C26.0250689,10.9431292 25.8678821,10.5611637 25.5535036,10.2465993 C25.2391251,9.93203478 24.8573855,9.7747549 24.4082734,9.7747549 C23.9591613,9.7747549 23.5774217,9.93203478 23.2630432,10.2465993 C22.9486647,10.5611637 22.7914779,10.9431292 22.7914779,11.392507 C22.7914779,11.8418848 22.9486647,12.2238502 23.2630432,12.5384147 C23.5774217,12.8529792 23.9591613,13.0102591 24.4082734,13.0102591 C24.8573855,13.0102591 25.2391251,12.8529792 25.5535036,12.5384147 C25.8678821,12.2238502 26.0250689,11.8418848 26.0250689,11.392507 L26.0250689,11.392507 Z M29.7975919,6.5392507 C29.7975919,9.33662769 29.3737487,11.7548059 28.5260496,13.7938578 C27.6783504,15.8329097 26.2552478,17.8578881 24.2566988,19.8688539 C23.3472468,20.7676096 22.2525524,21.756226 20.9725829,22.8347328 L20.6357505,29.2214832 C20.6132949,29.4012344 20.5234738,29.54728 20.3662845,29.6596244 L13.8991024,33.4343793 C13.8205078,33.4793171 13.7306867,33.5017857 13.6296365,33.5017857 C13.4949028,33.5017857 13.365785,33.4512314 13.2422792,33.3501214 L12.1644155,32.27162 C12.0184541,32.1143378 11.9735435,31.9345893 12.0296825,31.7323693 L13.4612203,27.081332 L8.72872497,22.3460368 L4.08043779,23.7784215 C4.04675438,23.7896559 3.99623002,23.7952731 3.9288632,23.7952731 C3.77167396,23.7952731 3.64255616,23.7447188 3.54150594,23.6436088 L2.46364224,22.5651074 C2.27276959,22.351653 2.24470051,22.1325845 2.37943414,21.9078956 L6.15195707,15.4368872 C6.2642351,15.279605 6.41019435,15.1897308 6.5898392,15.1672619 L12.9728133,14.8302302 C14.0506824,13.5495034 15.0387142,12.4541614 15.9369384,11.5441713 C18.0477654,9.4433299 20.057512,7.99410814 21.9662385,7.19646249 C23.874965,6.39881684 26.2945202,6 29.2249768,6 C29.382166,6 29.5168976,6.05336282 29.6291757,6.16009005 C29.7414537,6.26681729 29.7975919,6.3932029 29.7975919,6.5392507 L29.7975919,6.5392507 Z" sketch:type="MSShapeGroup" transform="translate(16.046699, 19.750893) rotate(-45.000000) translate(-16.046699, -19.750893) "></path>
        </g>
    </g>
</svg>