<?xml version="1.0" encoding="UTF-8" standalone="no"?>
<svg width="32px" height="32px" viewBox="0 0 32 32" version="1.1" xmlns="http://www.w3.org/2000/svg" xmlns:xlink="http://www.w3.org/1999/xlink" xmlns:sketch="http://www.bohemiancoding.com/sketch/ns">
    <!-- Generator: Sketch 3.4 (15575) - http://www.bohemiancoding.com/sketch -->
    <title>safari</title>
    <desc>Created with Sketch.</desc>
    <defs></defs>
    <g id="Browser" stroke="none" stroke-width="1" fill="none" fill-rule="evenodd" sketch:type="MSPage">
        <g id="Artboard-19" sketch:type="MSArtboardGroup" transform="translate(-33.000000, 0.000000)"></g>
        <g id="safari" sketch:type="MSArtboardGroup">
            <g sketch:type="MSLayerGroup" transform="translate(1.000000, 1.000000)">
                <circle id="oval" fill="#56AFEF" sketch:type="MSShapeGroup" cx="15" cy="15" r="15"></circle>
                <path d="M8.96235017,16.039328 C9.39650683,18.6016172 11.4084659,20.6240119 13.958852,21.0626477 L15,26.5 L16.041148,21.0626477 C18.5915341,20.6240119 20.6034932,18.6016172 21.0376498,16.039328 L26.4654971,15 L21.0376498,13.960672 C20.6034932,11.3983828 18.5915341,9.37598808 16.041148,8.93735227 L15,3.5 L13.958852,8.93735227 C11.4084659,9.37598808 9.39650683,11.3983828 8.96235017,13.960672 L3.53450292,15 L8.96235017,16.039328 Z M10.4879913,15.3721976 C10.6765206,17.7090743 12.6246048,19.5465116 15,19.5465116 C17.3753952,19.5465116 19.3234794,17.7090743 19.5120087,15.3721976 L19.5120087,14.6278024 C19.3234794,12.2909257 17.3753952,10.4534884 15,10.4534884 C12.6246048,10.4534884 10.6765206,12.2909257 10.4879913,14.6278024 L10.4879913,15.3721976 Z" id="compass" fill="#FFFFFF" sketch:type="MSShapeGroup"></path>
                <g id="directional" transform="translate(14.707525, 14.916327) rotate(91.000000) translate(-14.707525, -14.916327) translate(2.707525, 2.416327)" sketch:type="MSShapeGroup">
                    <polygon id="Triangle-5" fill="#F64747" transform="translate(6.952570, 7.076760) rotate(-45.000000) translate(-6.952570, -7.076760) " points="6.97867326 -0.165359388 9.30650625 14.3188802 4.59863386 14.3188804 "></polygon>
                    <polygon id="Triangle-6" fill="#E7D9D9" transform="translate(17.034360, 17.236639) scale(-1, -1) rotate(-45.000000) translate(-17.034360, -17.236639) " points="17.0545502 9.99451924 19.3942088 24.4787588 14.6745108 24.478759 "></polygon>
                    <ellipse id="Oval-4" fill="#FFFFFF" cx="11.9968467" cy="12.1682302" rx="2.38003939" ry="2.41403996"></ellipse>
                </g>
            </g>
        </g>
    </g>
</svg>